<?xml version="1.0" standalone="no"?>
<!DOCTYPE svg PUBLIC "-//W3C//DTD SVG 20010904//EN"
 "http://www.w3.org/TR/2001/REC-SVG-20010904/DTD/svg10.dtd">
<svg version="1.0" xmlns="http://www.w3.org/2000/svg"
 width="512.000000pt" height="512.000000pt" viewBox="0 0 512.000000 512.000000"
 preserveAspectRatio="xMidYMid meet">

<g transform="translate(0.000000,512.000000) scale(0.100000,-0.100000)"
fill="#ff385c" stroke="none">
<path d="M2855 4904 c-16 -2 -77 -9 -135 -15 -284 -30 -607 -116 -711 -190
-12 -9 -38 -4 -118 25 -218 77 -515 114 -714 87 -264 -35 -485 -149 -692 -356
-440 -438 -591 -1137 -405 -1875 190 -755 695 -1421 1427 -1886 280 -178 626
-342 952 -451 l104 -35 121 43 c1242 433 2099 1285 2360 2349 56 225 70 348
70 590 0 230 -11 320 -60 514 -151 595 -587 1034 -1098 1105 -169 24 -396 6
-594 -45 l-95 -25 -31 30 c-94 90 -261 150 -381 135z m145 -190 c103 -32 189
-127 279 -309 96 -191 134 -354 135 -570 1 -168 -13 -219 -80 -294 -65 -72
-128 -95 -264 -95 -116 -1 -191 18 -228 57 -20 22 -21 33 -24 344 l-3 321 -24
26 c-31 33 -85 35 -118 4 l-23 -21 0 -341 c0 -379 2 -386 70 -454 74 -75 225
-117 387 -109 l103 5 5 -32 c3 -17 10 -62 15 -101 6 -38 15 -84 21 -102 11
-33 80 -103 102 -103 23 0 161 -71 223 -115 121 -87 249 -248 419 -529 112
-186 220 -390 304 -574 l61 -134 -21 -26 c-64 -82 -239 -266 -339 -357 -191
-172 -363 -301 -565 -422 -128 -77 -345 -186 -354 -178 -3 4 -6 59 -5 123 0
139 18 212 76 324 81 157 217 268 365 299 72 14 212 7 276 -16 40 -15 52 -15
79 -4 55 23 68 96 24 138 -34 32 -164 61 -271 61 -191 0 -339 -62 -475 -200
-116 -117 -183 -235 -227 -400 -20 -77 -24 -303 -6 -363 l12 -38 -46 -20 c-25
-10 -106 -42 -181 -70 -135 -51 -137 -51 -182 -37 l-45 14 -3 428 -2 427 -54
67 c-211 266 -304 558 -276 876 18 211 79 435 165 607 54 107 68 160 55 207
-23 88 -70 116 -285 173 -153 40 -327 68 -486 78 -122 7 -141 11 -190 37 -79
42 -183 149 -219 225 -16 35 -30 69 -30 76 0 7 32 12 97 15 83 2 103 7 131 26
57 41 72 85 72 215 l0 113 93 22 c118 29 184 60 242 113 25 24 101 124 167
223 67 99 135 193 152 208 38 35 101 59 253 97 156 39 272 60 418 75 127 14
153 13 225 -10z m-1495 -75 c92 -11 285 -57 342 -81 l33 -14 -98 -144 c-65
-97 -110 -154 -138 -173 -32 -22 -99 -43 -316 -96 -163 -41 -291 -77 -312 -90
-20 -13 -44 -40 -57 -67 -20 -42 -21 -56 -16 -158 16 -311 155 -541 396 -658
83 -41 87 -41 230 -49 80 -5 207 -20 281 -33 137 -26 318 -72 334 -87 4 -4
-15 -57 -43 -119 -96 -206 -150 -408 -172 -645 -30 -334 68 -670 276 -947 l55
-73 0 -357 c0 -206 -4 -358 -9 -358 -21 0 -199 80 -366 165 -255 129 -448 253
-670 429 -126 101 -366 341 -468 468 -377 472 -589 1010 -614 1557 -34 761
389 1419 980 1526 91 17 236 18 352 4z m2530 -18 c303 -80 576 -318 735 -644
185 -380 224 -775 124 -1267 -57 -281 -201 -634 -354 -869 l-61 -94 -94 189
c-145 294 -332 608 -464 779 -71 93 -167 190 -240 244 -62 46 -198 120 -248
135 -24 8 -25 12 -46 160 l-12 89 66 66 c119 120 156 234 146 454 -11 230 -65
444 -163 639 l-44 88 22 9 c20 7 158 33 243 45 78 11 312 -3 390 -23z m-2755
-751 l0 -70 -85 0 -85 0 0 50 c0 49 1 49 38 59 20 5 53 14 72 19 61 17 60 18
60 -58z"/>
</g>
</svg>
